<svg width="225" height="195" viewBox="0 0 225 195" fill="none" xmlns="http://www.w3.org/2000/svg">
<mask id="path-1-inside-1_1_5" fill="white">
<path fill-rule="evenodd" clip-rule="evenodd" d="M185 31C207.091 31 225 48.9086 225 71V106.993C225 127.023 210.277 143.615 191.063 146.536L191.53 188.453C191.59 193.831 185.09 196.565 181.287 192.763L136.227 147.705C135.998 147.477 135.793 147.239 135.611 146.993H76C53.9086 146.993 36 129.084 36 106.993V71C36 48.9086 53.9086 31 76 31L185 31Z"/>
</mask>
<path d="M191.063 146.536L173.064 146.737L172.89 131.092L188.357 128.741L191.063 146.536ZM191.53 188.453L209.529 188.253L209.529 188.253L191.53 188.453ZM181.287 192.763L168.56 205.491L168.56 205.491L181.287 192.763ZM136.227 147.705L148.954 134.977L148.954 134.977L136.227 147.705ZM135.611 146.993V128.993H144.68L150.077 136.281L135.611 146.993ZM207 71C207 58.8497 197.15 49 185 49V13C217.033 13 243 38.9674 243 71H207ZM207 106.993V71H243V106.993H207ZM188.357 128.741C198.909 127.136 207 117.993 207 106.993H243C243 136.053 221.645 160.093 193.769 164.332L188.357 128.741ZM173.531 188.654L173.064 146.737L209.062 146.336L209.529 188.253L173.531 188.654ZM194.015 180.034C186.411 172.431 173.411 177.897 173.531 188.654L209.529 188.253C209.768 209.765 183.769 220.699 168.56 205.491L194.015 180.034ZM148.954 134.977L194.015 180.034L168.56 205.491L123.499 160.434L148.954 134.977ZM150.077 136.281C149.724 135.804 149.346 135.369 148.954 134.977L123.499 160.434C122.65 159.585 121.863 158.673 121.146 157.705L150.077 136.281ZM76 128.993H135.611V164.993L76 164.993L76 128.993ZM54 106.993C54 119.143 63.8497 128.993 76 128.993L76 164.993C43.9675 164.993 18 139.025 18 106.993L54 106.993ZM54 71V106.993L18 106.993V71H54ZM76 49C63.8497 49 54 58.8497 54 71H18C18 38.9675 43.9675 13 76 13V49ZM185 49L76 49V13L185 13V49Z" fill="#9B9CA7" mask="url(#path-1-inside-1_1_5)"/>
<path fill-rule="evenodd" clip-rule="evenodd" d="M40 0C17.9086 0 0 17.9086 0 40V75.9926C0 96.0229 14.7229 112.615 33.9372 115.536L33.4702 157.453C33.4103 162.831 39.9101 165.565 43.7128 161.763L88.7731 116.705C89.0017 116.477 89.2066 116.239 89.3888 115.993H149C171.091 115.993 189 98.084 189 75.9926V40C189 17.9086 171.091 0 149 0H40Z" fill="white"/>
<g filter="url(#filter0_d_1_5)">
<path fill-rule="evenodd" clip-rule="evenodd" d="M68 58C68 64.6274 62.6274 70 56 70C49.3726 70 44 64.6274 44 58C44 51.3726 49.3726 46 56 46C62.6274 46 68 51.3726 68 58ZM107 58C107 64.6274 101.627 70 95 70C88.3726 70 83 64.6274 83 58C83 51.3726 88.3726 46 95 46C101.627 46 107 51.3726 107 58ZM134 70C140.627 70 146 64.6274 146 58C146 51.3726 140.627 46 134 46C127.373 46 122 51.3726 122 58C122 64.6274 127.373 70 134 70Z" fill="#4255D4"/>
</g>
<defs>
<filter id="filter0_d_1_5" x="34" y="46" width="122" height="44" filterUnits="userSpaceOnUse" color-interpolation-filters="sRGB">
<feFlood flood-opacity="0" result="BackgroundImageFix"/>
<feColorMatrix in="SourceAlpha" type="matrix" values="0 0 0 0 0 0 0 0 0 0 0 0 0 0 0 0 0 0 127 0" result="hardAlpha"/>
<feOffset dy="10"/>
<feGaussianBlur stdDeviation="5"/>
<feComposite in2="hardAlpha" operator="out"/>
<feColorMatrix type="matrix" values="0 0 0 0 0 0 0 0 0 0 0 0 0 0 0 0 0 0 0.3 0"/>
<feBlend mode="normal" in2="BackgroundImageFix" result="effect1_dropShadow_1_5"/>
<feBlend mode="normal" in="SourceGraphic" in2="effect1_dropShadow_1_5" result="shape"/>
</filter>
</defs>
</svg>
